<svg width="133" height="102" viewBox="0 0 133 102" fill="none" xmlns="http://www.w3.org/2000/svg">
<rect width="133" height="102" fill="#1E1E1E"/>
<g clip-path="url(#clip0_0_1)">
<path d="M133 0H0V102H133V0Z" fill="#F5F5F5"/>
<path d="M106.423 73.0496C102.163 73.0645 98.7045 79.3674 98.7152 87.0979C98.726 94.8284 102.202 101.107 106.462 101.092C110.722 101.077 114.181 94.7743 114.17 87.0438C114.159 79.3133 110.684 73.0347 106.423 73.0496ZM106.459 98.8008C102.895 98.8133 99.9869 93.5604 99.978 87.0935C99.969 80.6265 102.862 75.3533 106.426 75.3409C109.99 75.3284 112.898 80.5813 112.907 87.0482C112.916 93.5152 110.023 98.7884 106.459 98.8008Z" fill="black"/>
<path d="M106.433 80.2837C104.528 80.2903 102.982 83.1076 102.987 86.5648C102.991 90.0219 104.545 92.8256 106.45 92.819C108.356 92.8123 109.901 89.9951 109.896 86.5406C109.892 83.0862 108.337 80.277 106.433 80.2837Z" fill="black"/>
<path d="M30.1878 72.691C25.9274 72.6842 22.4602 78.9681 22.459 86.7014C22.4578 94.4347 25.9245 100.727 30.1849 100.734C34.4453 100.74 37.9125 94.4565 37.9137 86.7232C37.915 78.99 34.4483 72.6978 30.1878 72.691ZM30.1847 98.4396C26.6206 98.4331 23.7202 93.1694 23.7217 86.6997C23.7232 80.2327 26.6225 74.9758 30.188 74.9796C33.7521 74.9861 36.651 80.2498 36.651 86.7195C36.6495 93.1892 33.7488 98.4462 30.1847 98.4396Z" fill="black"/>
<path d="M30.1872 79.9225C28.2819 79.921 26.7316 82.7301 26.7319 86.1846C26.7322 89.6418 28.2813 92.4536 30.1851 92.4578C32.0904 92.4593 33.6392 89.6529 33.6404 86.1957C33.6401 82.7412 32.091 79.9267 30.1872 79.9225Z" fill="black"/>
<path d="M131.22 46.5802C128.919 42.0502 123.746 43.7194 120.965 44.6155C120.653 44.7165 120.378 44.804 120.153 44.8669C120.137 44.8724 120.12 44.8778 120.104 44.886C113.623 48.0391 92.867 48.7314 92.6655 48.7402L27.1373 48.9441L27.1373 48.9496C24.553 48.9441 17.2882 48.7719 10.1004 47.2061C6.07715 46.3448 2.33963 45.864 0.804485 49.4211C-0.110355 51.5397 -0.108392 54.7132 0.809158 59.1203C0.825706 59.2015 0.849711 59.2771 0.879675 59.3447L0.921628 59.442C6.26007 71.7462 17.1063 73.8065 23.8498 73.7855C25.1277 73.7815 26.2592 73.7023 27.1772 73.6047L101.86 73.3722C123.862 73.3037 131.158 62.4076 131.94 56.6722C132.591 52.2007 132.35 48.806 131.22 46.5802ZM102.64 65.2722L28.3753 65.5034C10.8322 65.558 7.24822 58.2372 7.10292 57.9266L8.15588 56.3C8.18883 56.3675 11.7091 63.05 28.3714 62.9981L102.612 62.767C102.779 62.7557 121.796 61.4059 127.474 51.4509L128.437 53.2525C122.379 63.8743 103.443 65.221 102.64 65.2722Z" fill="#0B0C0B"/>
<path d="M35.4361 11.523C35.5541 11.5389 35.7335 11.7198 35.8905 11.8791L36.722 12.7215C40.2675 16.318 43.6156 19.7147 47.8552 20.365C51.4483 20.9144 55.0024 19.5221 57.8612 16.4446C58.3829 15.8824 58.8836 15.266 59.3679 14.6687C60.0131 13.8731 60.6226 13.121 61.2755 12.4933C63.5445 10.3061 66.3177 9.83157 68.8788 11.1913C69.0044 11.2586 69.1269 11.3476 69.2495 11.4312L67.6577 16.0945L68.7974 17.3747L70.4739 12.4647C70.7266 12.7158 70.9808 12.975 71.2395 13.2477C71.6223 13.6501 72.0186 14.0632 72.4253 14.4384C72.7049 14.6975 72.98 14.935 73.2566 15.186L72.6297 17.2436C72.4307 17.8997 72.1811 18.7184 72.1498 19.7124C72.1085 20.9855 72.4418 22.149 73.067 22.9054C73.7925 23.7834 74.7826 23.9266 75.531 23.2607C76.5404 22.3638 77.1468 20.6042 77.6623 18.9423C78.6444 19.7274 79.616 20.4719 80.5756 21.1649C80.123 22.9105 79.7708 24.9266 80.6173 26.8307C81.0293 27.7584 81.6348 28.29 82.3231 28.3339C83.2385 28.4015 84.233 27.594 84.9133 26.2567C85.2214 25.6517 85.4668 25.0795 85.6929 24.5074C86.6747 25.0731 87.6444 25.5711 88.6081 26.0393C88.4351 27.1259 88.2277 28.1774 87.9544 29.0395L89.1148 30.2547C89.4565 29.1811 89.7039 27.9101 89.9035 26.6555C91.3497 27.2956 92.7823 27.8301 94.2028 28.2563C94.6913 28.4037 95.1812 28.5376 95.6726 28.6607C96.8839 28.9629 98.0684 29.3357 99.1963 29.7682L99.3801 29.8381C100.061 30.0987 100.648 30.3216 101.218 30.7017C101.173 30.7588 101.13 30.8131 101.09 30.8565C100.686 31.2992 100.292 31.6282 99.9177 31.8325C96.5821 33.6493 92.9414 34.0778 89.42 34.4896L89.0349 34.5341C88.9961 34.5396 88.9468 34.5452 88.8976 34.5508C88.8797 34.5535 88.8677 34.5536 88.8483 34.5564C85.5344 34.9188 61.3087 35.7255 45.5021 34.6427C42.8271 26.3066 38.5423 19.679 33.5831 16.2088C34.1159 13.1792 34.7806 11.4384 35.4361 11.523Z" fill="#30B2C4"/>
<path d="M84.3525 23.6969C84.223 23.9983 84.0861 24.2997 83.9283 24.6121C83.5173 25.4214 82.8863 25.9495 82.3665 25.9104C82.0648 25.8924 81.827 25.6898 81.6591 25.3106C81.2964 24.4955 81.4115 23.6301 81.8288 22.0506C82.6765 22.6364 83.5183 23.1843 84.3525 23.6969Z" fill="#30B2C4"/>
<path d="M73.8015 18.4099L74.457 16.2545C75.1241 16.8409 75.7823 17.4003 76.4299 17.9379C76.0152 19.26 75.5645 20.5143 74.9395 21.0695C74.6158 21.358 74.1391 21.2754 73.8069 20.8724C73.6512 20.683 73.4685 20.3527 73.4841 19.8455C73.4998 19.4034 73.6544 18.8985 73.8015 18.4099Z" fill="#30B2C4"/>
<path d="M32.9284 21.3955C33.0167 20.4083 33.117 19.4862 33.2264 18.6237C37.5633 21.7182 41.3406 27.382 43.8499 34.5089C38.7129 34.0958 34.6588 33.4592 32.8318 32.5032C32.5151 29.316 32.5474 25.6722 32.9284 21.3955Z" fill="black"/>
<path d="M32.4399 34.9545C32.5101 34.9893 32.5878 35.024 32.6625 35.0587C34.6553 35.9856 38.5302 36.6072 43.3632 37.0157C43.4408 37.0208 43.5185 37.0286 43.5976 37.0364C43.8186 37.0544 44.0425 37.0725 44.2665 37.0906C44.4307 37.1035 44.5964 37.1163 44.7637 37.1292C44.9264 37.1421 45.0906 37.1523 45.2549 37.1652C45.5042 37.1831 45.7535 37.1984 46.0074 37.2164C46.1044 37.2214 46.2 37.2292 46.2985 37.2342C46.6494 37.2572 47.0032 37.2775 47.36 37.2978C47.369 37.2978 47.3764 37.2977 47.3854 37.3004C64.0533 38.2463 87.7558 37.2492 89.1425 37.0533L89.5186 37.0089C93.1174 36.5874 96.837 36.152 100.325 34.2615C100.811 33.9988 101.312 33.588 101.814 33.0373C101.905 32.9374 102.013 32.8025 102.126 32.6568C102.153 32.6217 102.18 32.5893 102.208 32.5516C102.212 32.5462 102.217 32.5408 102.221 32.5354C102.26 32.4868 102.299 32.4355 102.339 32.3816C102.349 32.3681 102.36 32.3573 102.369 32.3438C102.411 32.2898 102.452 32.2386 102.492 32.19C102.497 32.1846 102.501 32.1792 102.506 32.1738C102.58 32.0847 102.648 32.0145 102.706 31.9605C102.776 32.0571 102.869 32.229 102.926 32.3338L102.969 32.4117C103.285 32.9838 103.555 33.7417 103.79 34.6908C103.571 34.9015 103.358 35.166 103.161 35.4169C103.05 35.5599 102.945 35.6948 102.857 35.7893C102.456 36.2159 101.223 37.1997 100.828 37.411C97.4116 39.2205 93.6859 39.6478 90.0812 40.0586L89.6827 40.1031C88.2229 40.3046 75.2296 40.8367 61.6652 40.7519C45.3523 40.6498 34.8754 39.6796 31.956 38.0186C32.1109 36.6941 32.2975 35.6493 32.4399 34.9545Z" fill="#F5F5F5"/>
<path d="M63.1271 3.18546C63.1687 3.01728 63.2816 2.56698 63.4038 2.43104C63.5053 2.31686 63.7845 2.25897 64.5071 3.12643L69.1286 8.68254C66.9957 7.60047 64.7404 7.63274 62.6762 8.72946C62.5422 6.85173 62.6933 4.9161 63.1271 3.18546Z" fill="#F5F5F5"/>
<path d="M105.666 45.5653C105.639 44.9585 105.628 43.9181 105.618 42.7151C105.581 38.7893 105.526 35.6628 105.183 34.1358C104.852 32.6576 104.451 31.4994 103.957 30.5988L103.918 30.5285C103.714 30.1526 103.367 29.528 102.905 29.3914C102.889 29.3698 102.874 29.3427 102.856 29.3211C101.782 28.1788 100.76 27.7868 99.6778 27.376L99.4955 27.3062C98.336 26.8605 97.1168 26.48 95.8738 26.17C95.3958 26.0498 94.9177 25.9187 94.4411 25.7767C93.0606 25.3616 91.668 24.8462 90.2618 24.2225C90.2677 24.1819 90.2736 24.1385 90.278 24.1006L90.2973 23.9596C90.3253 23.7455 90.3535 23.5882 90.3772 23.4472C90.4631 22.9457 90.5163 22.5608 90.4884 21.8022C90.4434 20.5669 90.182 19.4759 89.7554 18.7268C89.2389 17.8237 88.617 17.3977 87.9601 17.5138C87.1448 17.6494 86.3024 18.6386 85.7071 20.158C85.5166 20.6437 85.35 21.0994 85.1893 21.5443C84.282 20.9948 83.3657 20.4073 82.4389 19.7711C82.7002 18.6377 82.8762 17.4286 82.7222 16.1639C82.4064 13.5612 80.9747 11.7562 79.5939 12.219C78.5535 12.5694 77.8087 13.9593 77.2507 15.4541L75.3942 13.2226C75.8595 11.6793 76.3141 9.88945 76.0352 8.00736C75.8558 6.79686 75.3915 5.82578 74.7291 5.26995C73.9606 4.62507 73.0093 4.6311 72.247 5.28132C71.6205 5.81727 71.1154 6.64542 70.6895 7.56541L65.2847 1.06805C64.8973 0.603372 63.7155 -0.814971 62.6911 0.326577C62.2646 0.80222 62.0327 1.5671 61.8797 2.17997C61.296 4.50672 61.1204 7.12738 61.3658 9.6409C61.1167 9.83956 60.8691 10.049 60.629 10.2802C59.9101 10.9736 59.2392 11.7996 58.5921 12.6012C58.124 13.1772 57.6409 13.775 57.1563 14.2969C54.5422 17.113 51.2793 18.387 47.9691 17.8784C44.0255 17.2771 40.8041 14.0072 37.3928 10.5483L36.5583 9.70313C36.3055 9.44661 35.9586 9.09831 35.5403 9.03745C33.1578 8.69896 32.0559 15.3708 31.5515 21.0299C31.1545 25.4856 31.1194 29.3223 31.4378 32.7297C31.4304 32.7541 31.4199 32.7758 31.4125 32.8029C31.3427 33.0552 29.7067 39.0704 30.4115 47.6515L30.7358 51.0264C30.7274 51.4166 30.742 52.2402 30.9657 53.1119C31.2375 54.1676 31.8606 55.4958 33.3187 55.8294C35.2397 56.1397 51.6098 57.5727 66.2544 57.5189C71.1335 57.5018 75.8257 57.3202 79.7229 56.8785C83.759 56.3929 87.7202 55.7288 91.499 54.9082L91.929 54.8146C95.4211 54.0573 99.0327 53.2752 102.443 51.3911L102.696 51.252C104.026 50.5348 105.848 49.5476 105.666 45.5653ZM104.233 42.7552C104.245 44.0042 104.254 45.0825 104.287 45.7706C104.368 47.5559 103.806 48.032 102.299 48.8474L102.039 48.9892C98.7455 50.8079 95.1952 51.5762 91.7628 52.3198L91.3328 52.4134C87.5794 53.2285 83.6421 53.8871 79.6328 54.3725C78.3621 54.5179 77.0047 54.6337 75.5861 54.7253C77.2025 48.6099 78.9937 44.7074 80.9181 43.1238L80.891 43.0155C85.8535 42.8627 89.2748 42.6909 89.7825 42.6187L90.1722 42.574C93.8529 42.1493 97.6606 41.7133 101.226 39.8124C101.771 39.5233 103.107 38.4294 103.569 37.932C103.684 37.8096 103.823 37.633 103.969 37.4456C104.009 37.394 104.06 37.3288 104.112 37.2608C104.197 38.9377 104.218 41.1133 104.233 42.7552ZM33.4675 53.3334C32.1275 53.0265 32.0986 51.5473 32.1204 51.1191C32.1291 50.9944 32.1275 50.8698 32.1154 50.7452L31.7805 47.2512C31.5739 44.7294 31.5931 42.4425 31.7129 40.5022C36.2382 42.7921 51.8962 43.32 65.8285 43.2713C70.3671 43.2555 74.7218 43.178 78.4464 43.081C76.8399 45.582 75.3638 49.5077 74.036 54.812C58.1723 55.6261 35.7097 53.6941 33.4675 53.3334ZM32.9186 21.4315C33.0068 20.445 33.1071 19.5234 33.2164 18.6614C37.5517 21.754 41.3275 27.4144 43.8359 34.537C38.7008 34.1241 34.6482 33.488 32.8219 32.5325C32.5054 29.3473 32.5377 25.7057 32.9186 21.4315ZM32.422 34.9345C32.4923 34.9694 32.57 35.0044 32.6447 35.0394C34.6382 35.9726 38.5146 36.5985 43.3495 37.0097C43.4271 37.0148 43.5048 37.0227 43.584 37.0305C43.805 37.0487 44.0291 37.0669 44.2531 37.0851C44.4174 37.0981 44.5832 37.1111 44.7505 37.124C44.9133 37.137 45.0776 37.1473 45.2419 37.1602C45.4913 37.1783 45.7407 37.1937 45.9946 37.2118C46.0917 37.2169 46.1873 37.2247 46.2859 37.2297C46.6369 37.2529 46.9908 37.2733 47.3478 37.2938C47.3568 37.2937 47.3642 37.2937 47.3732 37.2964C64.0473 38.2488 87.7589 37.2448 89.146 37.0476L89.5223 37.0029C93.1224 36.5785 96.8435 36.1401 100.333 34.2367C100.819 33.9722 101.32 33.5586 101.823 33.0042C101.914 32.9036 102.021 32.7677 102.134 32.621C102.161 32.5857 102.188 32.5531 102.216 32.5151C102.221 32.5097 102.225 32.5042 102.23 32.4988C102.269 32.4499 102.307 32.3983 102.348 32.3439C102.358 32.3303 102.368 32.3195 102.377 32.3059C102.419 32.2516 102.461 32.1999 102.501 32.151C102.506 32.1456 102.51 32.1401 102.515 32.1347C102.589 32.045 102.656 31.9744 102.714 31.92C102.785 32.0173 102.877 32.1903 102.934 32.2958L102.978 32.3742C103.294 32.9503 103.564 33.7134 103.799 34.669C103.58 34.8811 103.367 35.1474 103.17 35.4C103.058 35.544 102.954 35.6799 102.866 35.775C102.465 36.2045 101.231 37.195 100.836 37.4078C97.4182 39.2296 93.6912 39.6599 90.0851 40.0735L89.6864 40.1182C88.2261 40.3211 75.2279 40.8569 61.6583 40.7715C45.3393 40.6686 34.8585 39.6919 31.9379 38.0195C32.0929 36.6859 32.2796 35.634 32.422 34.9345ZM86.7978 21.5685C87.1594 20.6461 87.6633 20.0049 88.0829 19.9329C88.3442 19.8887 88.5893 20.0667 88.8244 20.475C89.0085 20.7967 89.1272 21.3382 89.1505 21.9586C89.1645 22.3243 89.1511 22.4002 89.0963 22.7229C89.0652 22.9018 89.0311 23.1078 88.9942 23.3843L88.975 23.5253C88.972 23.5497 88.969 23.5741 88.9646 23.5985C88.1531 23.2057 87.3356 22.7805 86.5121 22.3173C86.6014 22.0759 86.6966 21.8263 86.7978 21.5685ZM84.3619 23.6877C84.2324 23.9889 84.0954 24.2901 83.9376 24.6023C83.5265 25.4111 82.8955 25.939 82.3757 25.9001C82.074 25.8822 81.8363 25.6798 81.6685 25.3011C81.306 24.4868 81.4212 23.6221 81.8387 22.0437C82.6863 22.6287 83.5279 23.1758 84.3619 23.6877ZM79.8391 14.6079C80.5019 14.3834 81.2545 15.3724 81.4131 16.6832C81.4932 17.3468 81.3777 18.095 81.1892 18.8949C80.2653 18.2289 79.3279 17.5142 78.3815 16.7615C78.7744 15.7224 79.254 14.805 79.8391 14.6079ZM73.8109 18.4167L74.4665 16.2631C75.1334 16.8487 75.7913 17.4073 76.4387 17.9442C76.0239 19.2652 75.5731 20.5185 74.9481 21.0734C74.6244 21.3618 74.1479 21.2794 73.8158 20.8769C73.6602 20.6878 73.4776 20.3579 73.4933 19.8511C73.5091 19.4094 73.6637 18.9049 73.8109 18.4167ZM72.8205 7.47669C73.2278 7.12846 73.7564 7.12661 74.1676 7.47198C74.3769 7.64737 74.6462 7.99324 74.7412 8.63504C74.8844 9.60453 74.6053 10.7543 74.2738 11.8718L71.8219 8.92431C72.1183 8.31907 72.4461 7.79771 72.8205 7.47669ZM63.1401 3.21871C63.1817 3.05058 63.2946 2.60042 63.4168 2.46452C63.5182 2.35037 63.7974 2.29249 64.52 3.1597L69.1409 8.71421C67.0083 7.63245 64.7532 7.66471 62.6893 8.76112C62.5553 6.88393 62.7064 4.94886 63.1401 3.21871ZM35.4318 11.5386C35.5498 11.5545 35.7293 11.7354 35.8863 11.8947L36.7178 12.7372C40.2638 16.3338 43.6123 19.7306 47.8531 20.3796C51.4471 20.9279 55.0025 19.5337 57.8627 16.4539C58.3846 15.8912 58.8855 15.2744 59.3701 14.6766C60.0156 13.8805 60.6254 13.1278 61.2787 12.4997C63.5487 10.3106 66.3228 9.83492 68.8845 11.1943C69.01 11.2615 69.1326 11.3505 69.2552 11.4341L67.6622 16.0999L68.8019 17.3802L70.4798 12.4675C70.7325 12.7186 70.9867 12.9779 71.2455 13.2506C71.6284 13.653 72.0247 14.0661 72.4314 14.4413C72.7111 14.7005 72.9862 14.9379 73.2628 15.189L72.6354 17.2476C72.4362 17.904 72.1865 18.7231 72.155 19.7176C72.1134 20.9912 72.4466 22.1551 73.0719 22.9116C73.7974 23.7896 74.7878 23.9325 75.5366 23.266C76.5464 22.3684 77.1533 20.6078 77.6692 18.9451C78.6515 19.7302 79.6233 20.4746 80.583 21.1676C80.1299 22.914 79.7773 24.9311 80.6237 26.8356C81.0357 27.7635 81.6413 28.2951 82.3298 28.3388C83.2454 28.4061 84.2404 27.5979 84.9211 26.2597C85.2294 25.6544 85.475 25.0819 85.7012 24.5094C86.6832 25.075 87.6531 25.5728 88.617 26.0409C88.4438 27.128 88.2362 28.18 87.9626 29.0426L89.1232 30.2578C89.4652 29.1836 89.7128 27.912 89.9127 26.6568C91.3592 27.2966 92.7922 27.8308 94.213 28.2567C94.7016 28.404 95.1916 28.5377 95.6832 28.6607C96.8948 28.9626 98.0796 29.3351 99.2077 29.7674L99.3915 29.8372C100.073 30.0976 100.66 30.3204 101.23 30.7005C101.185 30.7575 101.142 30.8119 101.101 30.8554C100.697 31.2984 100.303 31.6276 99.9289 31.8322C96.5921 33.651 92.9502 34.081 89.4277 34.4943L89.0425 34.539C89.0036 34.5445 88.9544 34.5501 88.9051 34.5557C88.8872 34.5585 88.8752 34.5585 88.8558 34.5613C85.5409 34.9251 61.3079 35.7413 45.4968 34.6639C42.8224 26.3254 38.5375 19.6968 33.5774 16.2271C34.1109 13.196 34.7761 11.4542 35.4318 11.5386Z" fill="#1E113F"/>
<path d="M104.23 42.8048C104.242 44.0541 104.252 45.1328 104.284 45.8211C104.366 47.6068 103.804 48.0829 102.297 48.8979L102.037 49.0396C98.7449 50.8576 95.1953 51.6248 91.7637 52.3673L91.3339 52.4607C87.5813 53.2747 83.6449 53.9319 79.6366 54.416C78.3661 54.5609 77.009 54.6763 75.5907 54.7674C77.2057 48.6509 78.9959 44.7481 80.9196 43.1647L80.8926 43.0564C85.8541 42.9054 89.2746 42.7349 89.7822 42.6628L90.1718 42.6182C93.8518 42.1948 97.6586 41.7602 101.223 39.86C101.767 39.5711 103.103 38.4774 103.566 37.98C103.68 37.8577 103.819 37.6811 103.965 37.4936C104.005 37.442 104.056 37.3768 104.108 37.3089C104.193 38.9862 104.214 41.1625 104.23 42.8048Z" fill="#30B2C4"/>
<path d="M36.023 53.498C34.7587 53.2205 34.7312 51.8847 34.7518 51.4981C34.76 51.3855 34.7585 51.273 34.747 51.1605L34.4307 48.0052C34.2355 45.7279 34.2535 43.6629 34.3663 41.9107C38.6359 43.9795 53.4084 44.4595 66.5527 44.4186C70.8345 44.4053 74.943 44.3362 78.4569 44.2494C76.9415 46.5075 75.5493 50.0522 74.2971 54.8419C59.3307 55.5736 38.1383 53.8241 36.023 53.498Z" fill="#1E113F" stroke="#1E113F" stroke-width="6.2081" stroke-miterlimit="10"/>
</g>
<defs>
<clipPath id="clip0_0_1">
<rect width="133" height="102" fill="white"/>
</clipPath>
</defs>
</svg>
